<svg width="40" height="40" viewBox="0 0 40 40" fill="none" xmlns="http://www.w3.org/2000/svg">
<path d="M11.1836 10.0018V17.5071C11.1836 18.8831 12.3094 20.0089 13.6854 20.0089H26.1943C27.5703 20.0089 28.6961 18.8831 28.6961 17.5071V10.0018C28.6961 8.6258 27.5703 7.5 26.1943 7.5H13.6854C12.3094 7.5 11.1836 8.6258 11.1836 10.0018ZM23.6925 11.2527H16.1872V10.0018H23.6925V11.2527Z" fill="#FF4F79"/>
<path d="M32.1986 22.6357C31.9484 22.3856 31.5731 22.1354 30.8226 22.0103C30.0721 21.8852 26.0692 21.3848 25.5689 21.2598C24.8183 21.1347 23.9427 21.5099 22.8169 22.2605C22.0664 22.7608 20.5653 23.6365 20.4402 23.6365C20.5653 23.7616 21.1907 23.7616 21.1907 23.7616H21.3158C22.6918 23.7616 23.6925 24.8874 23.6925 26.1383V26.3885C23.6925 27.7644 22.5667 28.7652 21.3158 28.7652H18.689C16.4374 28.7652 14.3108 26.5135 14.3108 26.5135C14.3108 26.5135 16.9377 27.5143 18.689 27.5143H21.1907C21.9413 27.5143 22.4416 26.8888 22.4416 26.2634C22.4416 25.6379 21.9413 25.0125 21.3158 25.0125C18.9391 24.7623 17.9384 23.7616 17.9384 23.7616C17.9384 23.7616 15.8119 22.1354 15.0614 21.7601C12.4345 20.259 7.55603 23.3863 7.55603 23.3863L10.8083 30.5164C10.8083 30.5164 12.4345 29.5157 14.6861 30.3913C16.1872 31.0168 17.0628 31.5171 18.5639 32.0175C20.6904 32.7681 21.4409 32.643 22.8169 31.6422C24.0678 30.7666 30.0721 26.0132 30.9477 25.3877C32.1986 24.2619 32.824 23.3863 32.1986 22.6357Z" fill="#FF4F79"/>
</svg>
