<svg width="40" height="40" viewBox="0 0 40 40" fill="none" xmlns="http://www.w3.org/2000/svg">
<path d="M16.7938 12.5013L15.3616 8.69397C16.4237 8.80558 17.4875 8.50089 18.3297 7.84397C18.5576 7.56897 18.8569 7.36183 19.1949 7.24597C19.5331 7.13013 19.8964 7.10959 20.2453 7.18705C20.6201 7.28481 20.9215 7.56272 21.0491 7.92836C21.1076 8.26206 21.3096 8.55339 21.6016 8.72522C22.2223 8.95937 22.9141 8.91227 23.4976 8.59642C23.7813 8.49888 24.3125 8.31428 24.382 8.40334C24.3056 9.89175 23.8878 11.3422 23.1608 12.6431C22.1999 12.9386 21.2012 13.0933 20.1958 13.1029L20.1945 13.1027C19.0358 13.0879 17.8873 12.8848 16.7938 12.5013H16.7938ZM29.472 27.7871C29.3484 28.8364 28.9039 29.8219 28.1997 30.6094C27.4952 31.3969 26.5651 31.9478 25.5361 32.1871C21.8997 33.0831 18.1007 33.0831 14.4641 32.1871C13.4351 31.9478 12.505 31.3969 11.8005 30.6094C11.096 29.8219 10.6518 28.8365 10.5282 27.7871C9.87216 20.5071 14.9922 15.2911 16.3522 14.0431H16.3519C17.5843 14.4616 18.8747 14.683 20.176 14.6991H20.1921C21.3973 14.6892 22.5943 14.5006 23.7441 14.139C25.2321 15.5151 30.1121 20.635 29.4721 27.787L29.472 27.7871ZM20.336 22.5871C20.3041 22.5871 20.288 22.571 20.2559 22.571C19.1039 21.9951 19.1999 21.675 19.2958 21.3871C19.3604 21.2094 19.4778 21.0558 19.6322 20.9471C19.7867 20.8384 19.9708 20.7797 20.1599 20.779H20.176C20.3624 20.7703 20.5472 20.8194 20.7046 20.9196C20.8621 21.0199 20.9849 21.1663 21.0559 21.3391C21.2224 21.7471 21.6851 21.9464 22.0958 21.7871C22.294 21.7096 22.4528 21.556 22.5369 21.3605C22.6211 21.1652 22.6235 20.9442 22.5438 20.7471C22.2699 20.0458 21.684 19.5129 20.9599 19.3072V18.6831C20.9585 18.2418 20.6012 17.8844 20.1599 17.8831C19.9469 17.8811 19.7422 17.9645 19.5918 18.1152C19.4414 18.2656 19.3576 18.4703 19.3599 18.6831V19.323C18.6146 19.5674 18.0278 20.1482 17.7757 20.8911C17.1358 22.827 19.0077 23.7391 19.6157 24.027C19.6476 24.0431 19.6636 24.0589 19.6956 24.0589C20.8636 24.6348 21.1355 24.9069 21.0234 25.3868C20.9435 25.7228 20.5275 25.8667 20.1915 25.8989H20.0795L20.0797 25.8991C19.8431 25.9216 19.6049 25.8745 19.3947 25.7636C19.1844 25.6529 19.0109 25.483 18.8958 25.275C18.7241 24.8699 18.2587 24.6781 17.8516 24.8444C17.4442 25.0109 17.2465 25.4737 17.4078 25.883C17.7567 26.6924 18.4911 27.2703 19.3598 27.419V27.7391C19.3576 27.9518 19.4413 28.1565 19.5918 28.3071C19.7422 28.4576 19.9469 28.5411 20.1598 28.5391C20.6011 28.5377 20.9585 28.1804 20.9598 27.7391V27.3551C21.3476 27.2625 21.7027 27.0663 21.9875 26.7873C22.2721 26.5083 22.4754 26.1569 22.5757 25.771C23.0239 23.8991 21.344 23.083 20.336 22.587L20.336 22.5871Z" fill="white"/>
</svg>
