<svg width="20" height="24" viewBox="0 0 20 24" fill="none" xmlns="http://www.w3.org/2000/svg">
<path d="M15.1818 9.95367L15.7882 8.36205C15.9145 8.03358 15.6618 7.65468 15.3081 7.65468H7.93126L6.33963 11.6463L6.01116 8.84205H6.21346C6.33981 8.84205 6.46616 8.74108 6.46616 8.58935V7.83141C6.46616 7.70506 6.36519 7.5787 6.21346 7.5787H4.97552C4.84917 7.5787 4.72281 7.67968 4.72281 7.83141V8.58935C4.72281 8.7157 4.82379 8.84205 4.97552 8.84205H5.20302L4.87455 11.6463L3.30827 7.73043C1.86818 8.0589 0.731382 9.24631 0.579848 10.762L0.125202 15.0315C0.0746257 15.4609 0.352529 15.84 0.781999 15.9158C1.23665 16.0168 1.86823 16.0927 2.49981 16.1685L2.90406 22.9643C2.92926 23.5453 3.40928 23.9747 3.99029 23.9747H7.27454C7.85555 23.9747 8.31038 23.5201 8.36077 22.9643L8.91656 11.318C8.91656 10.7369 9.39661 10.2821 9.97762 10.2821H14.7271C14.9292 10.2821 15.1061 10.1558 15.1819 9.95365L15.1818 9.95367Z" fill="#FFBE0A"/>
<path d="M9.06805 3.46101C9.06805 5.37248 7.51834 6.92219 5.60687 6.92219C3.6954 6.92219 2.14587 5.37248 2.14587 3.46101C2.14587 1.54953 3.6954 0 5.60687 0C7.51834 0 9.06805 1.54953 9.06805 3.46101Z" fill="#FFBE0A"/>
<path d="M13.7418 12.0253C13.3123 11.4189 12.6049 11.7979 12.6049 12.2526C12.6049 12.7072 12.9081 13.4652 13.2365 14.1725C13.8175 14.2483 14.4239 14.2989 15.0807 14.2989C15.7123 14.2989 16.2933 14.2483 16.8491 14.1979C17.2028 13.44 17.5312 12.6316 17.5312 12.278C17.5312 11.7473 16.8744 11.4949 16.4702 12.0506C15.9396 12.7832 15.7376 11.7222 15.1312 11.7222C14.5249 11.7222 14.1965 12.6822 13.7417 12.0253L13.7418 12.0253Z" fill="#FFBE0A"/>
<path d="M16.9502 14.9305C16.3692 15.0063 15.7123 15.0569 15.0555 15.0569C14.3987 15.0569 13.7418 15.0063 13.1607 14.9305C11.7712 16.1179 10.2302 18.0884 10.2302 19.8568C10.2302 22.661 12.3776 24 15.0554 24C17.7081 24 19.8807 22.6863 19.8807 19.8568C19.8807 18.0885 18.3396 16.118 16.9501 14.9305H16.9502ZM15.4092 21.5495V22.0801C15.4092 22.1307 15.3586 22.1811 15.3082 22.1811H14.803C14.7524 22.1811 14.702 22.1305 14.702 22.0801V21.5749C14.1714 21.5497 13.7673 21.1454 13.7167 20.6148C13.7167 20.5643 13.7673 20.5139 13.8177 20.5139H14.3483C14.3989 20.5139 14.4493 20.5391 14.4493 20.5896C14.4745 20.7412 14.6262 20.8675 14.803 20.8675H15.2576C15.5355 20.8675 15.7628 20.6654 15.7882 20.4129C15.8134 20.1098 15.5861 19.8571 15.283 19.8571H14.9545C14.323 19.8571 13.742 19.3771 13.6914 18.7455C13.6156 18.0887 14.1208 17.5075 14.7524 17.4065V16.8759C14.7524 16.8253 14.803 16.7749 14.8534 16.7749H15.3586C15.4092 16.7749 15.4596 16.8255 15.4596 16.8759V17.3811C15.9902 17.4063 16.3943 17.8106 16.4449 18.3412C16.4449 18.3918 16.3943 18.4422 16.3439 18.4422H15.8387C15.7881 18.4422 15.7377 18.417 15.7377 18.3664C15.7125 18.2148 15.5608 18.0885 15.384 18.0885H14.9294C14.6515 18.0885 14.4242 18.2906 14.3988 18.5431C14.3736 18.8462 14.6009 19.1241 14.904 19.1241H15.2829C15.9902 19.1241 16.5712 19.7305 16.4954 20.4631C16.4197 21.019 15.965 21.4485 15.4092 21.5495H15.4092Z" fill="#FFBE0A"/>
</svg>
