<svg width="28" height="28" viewBox="0 0 28 28" fill="none" xmlns="http://www.w3.org/2000/svg">
<path d="M24.8595 8.96454V12.419H16.3696C15.5042 12.419 14.7886 13.1345 14.7886 14V17.5544C14.7886 18.4199 15.5042 19.1355 16.3696 19.1355H24.8595V22.5899C24.8595 23.0372 24.5182 23.3785 24.0709 23.3785H3.92908C3.48177 23.3785 3.14047 23.0372 3.14047 22.5899V7.91929C3.468 8.0817 3.8363 8.17593 4.22528 8.17593H4.22537C8.77665 8.17189 13.6852 8.17336 18.1661 8.17471C20.2537 8.17533 22.2484 8.17593 24.0709 8.17593C24.5182 8.17593 24.8595 8.51723 24.8595 8.96454ZM16.3694 13.8038H16.3696H24.8595V17.7507H16.3696C16.3064 17.7507 16.2586 17.729 16.2269 17.6972C16.1951 17.6655 16.1734 17.6177 16.1734 17.5544V14C16.1734 13.9367 16.1951 13.8889 16.2269 13.8571C16.2586 13.8253 16.3063 13.8037 16.3694 13.8038ZM4.22528 3.23667C2.86753 3.23667 1.75565 4.34855 1.75565 5.7063V22.5899C1.75565 23.7836 2.73542 24.7633 3.92908 24.7633H24.0709C25.2646 24.7633 26.2444 23.7836 26.2444 22.5899V8.96454C26.2444 7.77088 25.2646 6.79111 24.0709 6.79111H22.6899V3.92908C22.6899 3.56366 22.3629 3.2367 21.9975 3.23667H4.22528ZM4.22528 4.62148H21.3051V6.79111H4.22528C3.61387 6.79111 3.14047 6.31771 3.14047 5.7063C3.14047 5.09489 3.61387 4.62148 4.22528 4.62148ZM19.3317 14.4924C18.6221 14.4924 18.0469 15.0677 18.0469 15.7772C18.0469 16.4868 18.6221 17.062 19.3317 17.062C20.0412 17.062 20.6165 16.4868 20.6165 15.7772C20.6165 15.0677 20.0412 14.4924 19.3317 14.4924Z" fill="#A7A8AB" stroke="#A7A8AB" stroke-width="0.2"/>
</svg>
