<svg width="45" height="45" viewBox="0 0 45 45" fill="none" xmlns="http://www.w3.org/2000/svg">
<rect x="0.11792" y="0.628784" width="44" height="44" rx="12" fill="white"/>
<path d="M28.1179 19.1288C28.1179 17.5375 27.4858 16.0114 26.3606 14.8861C25.2353 13.7609 23.7092 13.1288 22.1179 13.1288C20.5266 13.1288 19.0005 13.7609 17.8753 14.8861C16.7501 16.0114 16.1179 17.5375 16.1179 19.1288C16.1179 26.1288 13.1179 28.1288 13.1179 28.1288H31.1179C31.1179 28.1288 28.1179 26.1288 28.1179 19.1288Z" stroke="#878997" stroke-width="2" stroke-linecap="round" stroke-linejoin="round"/>
<path d="M23.8479 32.1288C23.6721 32.4319 23.4198 32.6834 23.1161 32.8583C22.8125 33.0332 22.4683 33.1252 22.1179 33.1252C21.7675 33.1252 21.4233 33.0332 21.1197 32.8583C20.8161 32.6834 20.5637 32.4319 20.3879 32.1288" stroke="#878997" stroke-width="2" stroke-linecap="round" stroke-linejoin="round"/>
<circle cx="28.1179" cy="16.1288" r="5.5" fill="#FF4F79" stroke="white"/>
</svg>
